<?xml version="1.0" encoding="UTF-8" standalone="no"?><svg width="117" height="106" viewBox="0 0 117 106" fill="none" xmlns="http://www.w3.org/2000/svg">
<circle cx="58" cy="73" r="33" transform="rotate(-90 58 73)" fill="url(#paint0_linear_13_716)"/>
<circle cx="58" cy="33" r="33" transform="rotate(-90 58 33)" fill="url(#paint1_linear_13_716)"/>
<circle cx="58" cy="33" r="32" transform="rotate(-90 58 33)" fill="url(#paint2_linear_13_716)" stroke="white" stroke-width="2"/>
<circle cx="58" cy="73" r="32" transform="rotate(-90 58 73)" stroke="white" stroke-width="2"/>
<path d="M15.834 22H18.6342V29.8403H16.015C15.1541 29.8403 14.3811 30.1493 13.7287 30.7189L13.7036 30.7408L13.68 30.7643C13.0679 31.3751 12.753 32.1422 12.753 33.0069V47.6966L6.88053 52.452L5.92929 53.2223L6.87382 54.0008L12.753 58.8467V73.9931C12.753 74.8539 13.0634 75.6262 13.6345 76.2774L13.6785 76.3275L13.7287 76.3714C14.3811 76.941 15.1541 77.25 16.015 77.25H18.6342V85H15.834C13.834 85 12.0199 84.5325 10.3719 83.6046C8.76893 82.6082 7.46906 81.2834 6.46675 79.6166C5.47455 77.9666 4.98113 76.1888 4.98113 74.2639V60.4514V59.8801L4.48901 59.59L1 57.5329V48.8582L4.45915 46.9756L4.98113 46.6915V46.0972V32.7361C4.98113 30.7456 5.47717 28.9744 6.45888 27.3963L6.46286 27.3899L6.46675 27.3834C7.4697 25.7156 8.76843 24.4233 10.3672 23.4882L10.3672 23.4882L10.376 23.483C12.0256 22.4954 13.8378 22 15.834 22ZM101.256 85H98.4563V77.25H101.075C101.94 77.25 102.708 76.9367 103.32 76.326L103.344 76.3024L103.366 76.2774C103.937 75.6262 104.247 74.8539 104.247 73.9931V58.9413L110.211 54.0956L111.175 53.3126L110.204 52.5379L104.247 47.7826V33.0069C104.247 32.1422 103.932 31.3751 103.32 30.7643C102.708 30.1536 101.94 29.8403 101.075 29.8403H98.4563V22H101.256C103.253 22 105.029 22.4953 106.611 23.4752L106.628 23.4857L106.645 23.4955C108.298 24.4297 109.585 25.7139 110.521 27.3619L110.531 27.3793L110.541 27.3963C111.523 28.9744 112.019 30.7456 112.019 32.7361V46.0972V46.6685L112.511 46.9586L116 49.0157V57.5439L112.497 59.6888L112.019 59.9814V60.5417V74.2639C112.019 76.2544 111.523 78.0256 110.541 79.6037L110.534 79.6145L110.528 79.6254C109.591 81.2201 108.296 82.516 106.624 83.517L106.618 83.5209L106.611 83.5248C105.029 84.5047 103.253 85 101.256 85Z" fill="#64298B" stroke="white" stroke-width="2"/>
<defs>
<linearGradient id="paint0_linear_13_716" x1="31" y1="73" x2="76.5" y2="73" gradientUnits="userSpaceOnUse">
<stop stop-color="#5C9DE9"/>
<stop offset="1" stop-color="#5A1665"/>
</linearGradient>
<linearGradient id="paint1_linear_13_716" x1="58" y1="0" x2="58" y2="66" gradientUnits="userSpaceOnUse">
<stop stop-color="#E95CA0"/>
<stop offset="1" stop-color="#9F3BAF"/>
</linearGradient>
<linearGradient id="paint2_linear_13_716" x1="51" y1="33" x2="91" y2="33" gradientUnits="userSpaceOnUse">
<stop stop-color="#E95CA0"/>
<stop offset="1" stop-color="#9F3BAF"/>
</linearGradient>
</defs>
</svg>
