<?xml version="1.0" encoding="UTF-8" standalone="no"?><svg width="196" height="65" viewBox="0 0 196 65" fill="none" xmlns="http://www.w3.org/2000/svg">
<ellipse cx="39.5" cy="45" rx="20" ry="20.5" transform="rotate(-90 39.5 45)" fill="url(#paint0_linear_11_695)"/>
<circle cx="39.5" cy="20.5" r="20.5" transform="rotate(-90 39.5 20.5)" fill="url(#paint1_linear_11_695)"/>
<circle cx="39.5" cy="20.5" r="19.5" transform="rotate(-90 39.5 20.5)" fill="url(#paint2_linear_11_695)" stroke="white" stroke-width="2"/>
<path d="M39.5 26C50.293 26 59 34.5297 59 45C59 55.4703 50.293 64 39.5 64C28.707 64 20 55.4703 20 45C20 34.5297 28.707 26 39.5 26Z" stroke="white" stroke-width="2"/>
<path d="M103.278 58L96 45.1948H98.8431L104.507 55.3065L110.17 45.1948H113.013L105.735 58H103.278Z" fill="url(#paint3_linear_11_695)"/>
<path d="M120.108 58V45.1948H122.565V58H120.108ZM120.108 43.3844V41H122.565V43.3844H120.108Z" fill="url(#paint4_linear_11_695)"/>
<path d="M133.561 58C133.015 58 132.522 57.8675 132.082 57.6026C131.643 57.3377 131.286 56.9918 131.013 56.5649C130.741 56.1381 130.604 55.6597 130.604 55.1299V54.7987H133.06V55.0636C133.06 55.2108 133.114 55.3433 133.22 55.461C133.341 55.5641 133.477 55.6156 133.629 55.6156H140.998C141.15 55.6156 141.279 55.5641 141.385 55.461C141.491 55.3433 141.544 55.2108 141.544 55.0636V53.3416C141.544 53.1944 141.491 53.0693 141.385 52.9662C141.279 52.8485 141.15 52.7896 140.998 52.7896H133.561C133.015 52.7896 132.522 52.6645 132.082 52.4143C131.643 52.1494 131.286 51.8035 131.013 51.3766C130.741 50.9351 130.604 50.4494 130.604 49.9195V48.0649C130.604 47.5351 130.741 47.0567 131.013 46.6299C131.286 46.203 131.643 45.8571 132.082 45.5922C132.522 45.3273 133.015 45.1948 133.561 45.1948H141.067C141.612 45.1948 142.105 45.3273 142.545 45.5922C143 45.8571 143.356 46.203 143.614 46.6299C143.887 47.0567 144.023 47.5351 144.023 48.0649V48.3961H141.544V48.1312C141.544 47.984 141.491 47.8589 141.385 47.7558C141.279 47.6381 141.15 47.5792 140.998 47.5792H133.629C133.477 47.5792 133.341 47.6381 133.22 47.7558C133.114 47.8589 133.06 47.984 133.06 48.1312V49.8532C133.06 50.0004 133.114 50.1329 133.22 50.2506C133.341 50.3537 133.477 50.4052 133.629 50.4052H141.067C141.612 50.4052 142.105 50.5377 142.545 50.8026C143 51.0528 143.356 51.3987 143.614 51.8403C143.887 52.2671 144.023 52.7455 144.023 53.2753V55.1299C144.023 55.6597 143.887 56.1381 143.614 56.5649C143.356 56.9918 143 57.3377 142.545 57.6026C142.105 57.8675 141.612 58 141.067 58H133.561Z" fill="url(#paint5_linear_11_695)"/>
<path d="M151.633 58V45.1948H154.089V58H151.633ZM151.633 43.3844V41H154.089V43.3844H151.633Z" fill="url(#paint6_linear_11_695)"/>
<path d="M164.82 58C164.275 58 163.782 57.8675 163.342 57.6026C162.902 57.3377 162.546 56.9918 162.273 56.5649C162 56.1381 161.864 55.6597 161.864 55.1299V48.0649C161.864 47.5351 162 47.0567 162.273 46.6299C162.546 46.203 162.902 45.8571 163.342 45.5922C163.782 45.3273 164.275 45.1948 164.82 45.1948H172.326C172.872 45.1948 173.365 45.3273 173.805 45.5922C174.259 45.8424 174.616 46.1883 174.874 46.6299C175.147 47.0714 175.283 47.5498 175.283 48.0649V55.1299C175.283 55.6597 175.147 56.1381 174.874 56.5649C174.616 56.9918 174.259 57.3377 173.805 57.6026C173.365 57.8675 172.872 58 172.326 58H164.82ZM164.889 55.6156H172.258C172.41 55.6156 172.538 55.5641 172.645 55.461C172.751 55.3433 172.804 55.2108 172.804 55.0636V48.1312C172.804 47.984 172.751 47.8589 172.645 47.7558C172.538 47.6381 172.41 47.5792 172.258 47.5792H164.889C164.737 47.5792 164.601 47.6381 164.479 47.7558C164.373 47.8589 164.32 47.984 164.32 48.1312V55.0636C164.32 55.2108 164.373 55.3433 164.479 55.461C164.601 55.5641 164.737 55.6156 164.889 55.6156Z" fill="url(#paint7_linear_11_695)"/>
<path d="M182.581 58V45.1948H193.043C193.589 45.1948 194.082 45.3273 194.522 45.5922C194.976 45.8571 195.333 46.203 195.591 46.6299C195.864 47.0567 196 47.5351 196 48.0649V58H193.544V48.1312C193.544 47.984 193.483 47.8589 193.362 47.7558C193.255 47.6381 193.127 47.5792 192.975 47.5792H185.606C185.454 47.5792 185.318 47.6381 185.196 47.7558C185.09 47.8589 185.037 47.984 185.037 48.1312V58H182.581Z" fill="url(#paint8_linear_11_695)"/>
<path fill-rule="evenodd" clip-rule="evenodd" d="M96 10V29.9653H97.5692H97.9302H99.4994V10H97.9302H97.5692H96ZM113.015 12.2461V29.9653H114.585H114.922H116.491V12.2461H122.431H124V10H122.431H107.052H105.483V12.2461H107.052H113.015Z" fill="#2C2762"/>
<path d="M0.96 34.58V32.48H2.22C4.5 32.48 6.26 31.9 7.5 30.74C8.78 29.54 9.42 27.78 9.42 25.46V15.86C9.42 13.82 9.66 12.14 10.14 10.82C10.62 9.5 11.54 8.46 12.9 7.7C14.26 6.9 16.22 6.38 18.78 6.14V8.36C17.06 8.68 15.8 9.16 15 9.8C14.24 10.44 13.76 11.28 13.56 12.32C13.4 13.36 13.32 14.62 13.32 16.1L13.2 25.28C13.16 27.92 12.42 30.02 10.98 31.58C9.58 33.14 7.46 34.04 4.62 34.28L0.96 34.58ZM18.78 61.76C16.22 61.44 14.26 60.9 12.9 60.14C11.54 59.42 10.62 58.38 10.14 57.02C9.66 55.7 9.42 54.02 9.42 51.98V42.38C9.42 40.14 8.8 38.42 7.56 37.22C6.36 35.98 4.58 35.36 2.22 35.36H0.96V33.2L4.68 33.56C7.4 33.8 9.48 34.7 10.92 36.26C12.36 37.82 13.12 39.98 13.2 42.74L13.32 51.74C13.36 53.22 13.46 54.46 13.62 55.46C13.82 56.5 14.28 57.34 15 57.98C15.76 58.62 17.02 59.12 18.78 59.48V61.76ZM78.5344 33.2V35.36H77.3344C75.0544 35.36 73.2744 35.96 71.9944 37.16C70.7144 38.32 70.0744 40.06 70.0744 42.38V51.98C70.0744 53.98 69.8344 55.64 69.3544 56.96C68.8744 58.32 67.9544 59.38 66.5944 60.14C65.2744 60.9 63.3144 61.44 60.7144 61.76V59.48C62.4744 59.12 63.7344 58.62 64.4944 57.98C65.2544 57.38 65.7144 56.56 65.8744 55.52C66.0744 54.52 66.1744 53.26 66.1744 51.74L66.2944 42.56C66.4144 39.92 67.1744 37.82 68.5744 36.26C70.0144 34.7 72.1144 33.8 74.8744 33.56L78.5344 33.2ZM60.7144 6.14C63.3144 6.38 65.2744 6.88 66.5944 7.64C67.9544 8.4 68.8744 9.46 69.3544 10.82C69.8344 12.14 70.0744 13.82 70.0744 15.86V25.46C70.0744 27.7 70.6944 29.44 71.9344 30.68C73.1744 31.88 74.9744 32.48 77.3344 32.48H78.5344V34.58L74.8744 34.28C72.1544 34.04 70.0744 33.14 68.6344 31.58C67.1944 30.02 66.4344 27.88 66.3544 25.16L66.1744 16.1C66.1744 14.62 66.0744 13.38 65.8744 12.38C65.7144 11.34 65.2544 10.5 64.4944 9.86C63.7344 9.22 62.4744 8.72 60.7144 8.36V6.14Z" fill="url(#paint9_linear_11_695)"/>
<path d="M0.96 34.58H0.46V35.1227L1.00085 35.0783L0.96 34.58ZM0.96 32.48V31.98H0.46V32.48H0.96ZM7.5 30.74L7.84158 31.1051L7.84197 31.1048L7.5 30.74ZM10.14 10.82L9.6701 10.6491L9.6701 10.6491L10.14 10.82ZM12.9 7.7L13.144 8.13658L13.1535 8.13096L12.9 7.7ZM18.78 6.14H19.28V5.59093L18.7333 5.64218L18.78 6.14ZM18.78 8.36L18.8715 8.85156L19.28 8.77556V8.36H18.78ZM15 9.8L14.6876 9.40944L14.6779 9.41754L15 9.8ZM13.56 12.32L13.069 12.2256L13.0672 12.2347L13.0658 12.244L13.56 12.32ZM13.32 16.1L13.82 16.1065V16.1H13.32ZM13.2 25.28L13.6999 25.2876L13.7 25.2865L13.2 25.28ZM10.98 31.58L10.6126 31.2408L10.6079 31.246L10.98 31.58ZM4.62 34.28L4.66085 34.7783L4.6621 34.7782L4.62 34.28ZM18.78 61.76L18.718 62.2561L19.28 62.3264V61.76H18.78ZM12.9 60.14L13.144 59.7034L13.1339 59.6981L12.9 60.14ZM10.14 57.02L10.6115 56.8536L10.6099 56.8491L10.14 57.02ZM7.56 37.22L7.2007 37.5677L7.2064 37.5736L7.21229 37.5793L7.56 37.22ZM0.96 35.36H0.46V35.86H0.96V35.36ZM0.96 33.2L1.00816 32.7023L0.46 32.6493V33.2H0.96ZM4.68 33.56L4.63184 34.0577L4.63605 34.0581L4.68 33.56ZM10.92 36.26L11.2874 35.9209L11.2874 35.9209L10.92 36.26ZM13.2 42.74L13.7 42.7333L13.6998 42.7255L13.2 42.74ZM13.32 51.74L12.82 51.7467L12.8202 51.7535L13.32 51.74ZM13.62 55.46L13.1263 55.539L13.1275 55.5467L13.129 55.5544L13.62 55.46ZM15 57.98L14.6677 58.3538L14.6779 58.3625L15 57.98ZM18.78 59.48H19.28V59.0719L18.8802 58.9901L18.78 59.48ZM1.46 34.58V32.48H0.46V34.58H1.46ZM0.96 32.98H2.22V31.98H0.96V32.98ZM2.22 32.98C4.58249 32.98 6.48097 32.378 7.84158 31.1051L7.15842 30.3749C6.03903 31.422 4.41751 31.98 2.22 31.98V32.98ZM7.84197 31.1048C9.2524 29.7825 9.92 27.8716 9.92 25.46H8.92C8.92 27.6884 8.3076 29.2975 7.15803 30.3752L7.84197 31.1048ZM9.92 25.46V15.86H8.92V25.46H9.92ZM9.92 15.86C9.92 13.8543 10.1566 12.2373 10.6099 10.9909L9.6701 10.6491C9.16337 12.0427 8.92 13.7857 8.92 15.86H9.92ZM10.6099 10.9909C11.0443 9.7962 11.8764 8.84478 13.1439 8.13647L12.6561 7.26353C11.2036 8.07521 10.1957 9.2038 9.6701 10.6491L10.6099 10.9909ZM13.1535 8.13096C14.4227 7.38438 16.2991 6.87477 18.8267 6.63782L18.7333 5.64218C16.1409 5.88523 14.0973 6.41562 12.6465 7.26903L13.1535 8.13096ZM18.28 6.14V8.36H19.28V6.14H18.28ZM18.6885 7.86843C16.9376 8.19419 15.5823 8.69382 14.6877 9.40956L15.3123 10.1904C16.0177 9.62617 17.1824 9.16581 18.8715 8.85156L18.6885 7.86843ZM14.6779 9.41754C13.8243 10.1364 13.2891 11.081 13.069 12.2256L14.051 12.4144C14.2309 11.479 14.6557 10.7436 15.3221 10.1825L14.6779 9.41754ZM13.0658 12.244C12.9007 13.3169 12.82 14.6039 12.82 16.1H13.82C13.82 14.6361 13.8993 13.4031 14.0542 12.396L13.0658 12.244ZM12.82 16.0935L12.7 25.2735L13.7 25.2865L13.82 16.1065L12.82 16.0935ZM12.7001 25.2724C12.6614 27.8206 11.9501 29.7919 10.6126 31.2409L11.3474 31.9191C12.8899 30.2481 13.6586 28.0194 13.6999 25.2876L12.7001 25.2724ZM10.6079 31.246C9.31965 32.6815 7.33739 33.5486 4.5779 33.7818L4.6621 34.7782C7.58261 34.5314 9.84035 33.5985 11.3521 31.914L10.6079 31.246ZM4.57915 33.7817L0.919153 34.0817L1.00085 35.0783L4.66085 34.7783L4.57915 33.7817ZM18.842 61.2639C16.3095 60.9473 14.4227 60.4181 13.1439 59.7035L12.6561 60.5765C14.0973 61.3819 16.1305 61.9327 18.718 62.2561L18.842 61.2639ZM13.1339 59.6981C11.8768 59.0325 11.0467 58.0868 10.6115 56.8536L9.66851 57.1864C10.1933 58.6732 11.2032 59.8075 12.6661 60.5819L13.1339 59.6981ZM10.6099 56.8491C10.1566 55.6027 9.92 53.9857 9.92 51.98H8.92C8.92 54.0543 9.16337 55.7973 9.6701 57.1909L10.6099 56.8491ZM9.92 51.98V42.38H8.92V51.98H9.92ZM9.92 42.38C9.92 40.0469 9.27176 38.1807 7.90771 36.8607L7.21229 37.5793C8.32824 38.6593 8.92 40.2331 8.92 42.38H9.92ZM7.9193 36.8723C6.5946 35.5034 4.66421 34.86 2.22 34.86V35.86C4.49579 35.86 6.1254 36.4566 7.2007 37.5677L7.9193 36.8723ZM2.22 34.86H0.96V35.86H2.22V34.86ZM1.46 35.36V33.2H0.46V35.36H1.46ZM0.911838 33.6977L4.63184 34.0577L4.72816 33.0623L1.00816 32.7023L0.911838 33.6977ZM4.63605 34.0581C7.26877 34.2904 9.21887 35.1543 10.5526 36.5991L11.2874 35.9209C9.74114 34.2457 7.53123 33.3096 4.72395 33.0619L4.63605 34.0581ZM10.5526 36.5991C11.8887 38.0466 12.6226 40.0781 12.7002 42.7545L13.6998 42.7255C13.6174 39.8819 12.8313 37.5934 11.2874 35.9209L10.5526 36.5991ZM12.7 42.7467L12.82 51.7467L13.82 51.7333L13.7 42.7333L12.7 42.7467ZM12.8202 51.7535C12.8605 53.2464 12.9616 54.5099 13.1263 55.539L14.1137 55.381C13.9584 54.4101 13.8595 53.1936 13.8198 51.7265L12.8202 51.7535ZM13.129 55.5544C13.3476 56.6911 13.8573 57.6333 14.6678 58.3537L15.3322 57.6063C14.7027 57.0467 14.2924 56.3089 14.111 55.3656L13.129 55.5544ZM14.6779 58.3625C15.5347 59.0839 16.8943 59.6046 18.6798 59.9699L18.8802 58.9901C17.1457 58.6354 15.9853 58.1561 15.3221 57.5975L14.6779 58.3625ZM18.28 59.48V61.76H19.28V59.48H18.28ZM78.5344 33.2H79.0344V32.6484L78.4854 32.7024L78.5344 33.2ZM78.5344 35.36V35.86H79.0344V35.36H78.5344ZM71.9944 37.16L72.3302 37.5305L72.3363 37.5248L71.9944 37.16ZM69.3544 56.96L68.8845 56.7891L68.8829 56.7936L69.3544 56.96ZM66.5944 60.14L66.3504 59.7035L66.3449 59.7067L66.5944 60.14ZM60.7144 61.76H60.2144V62.3253L60.7755 62.2563L60.7144 61.76ZM60.7144 59.48L60.6142 58.9901L60.2144 59.0719V59.48H60.7144ZM64.4944 57.98L64.1846 57.5876L64.1784 57.5925L64.1723 57.5975L64.4944 57.98ZM65.8744 55.52L65.3841 55.4219L65.3819 55.4329L65.3802 55.444L65.8744 55.52ZM66.1744 51.74L65.6744 51.7335V51.74H66.1744ZM66.2944 42.56L65.7949 42.5373L65.7945 42.5454L65.7944 42.5535L66.2944 42.56ZM68.5744 36.26L68.2069 35.9208L68.2023 35.926L68.5744 36.26ZM74.8744 33.56L74.9177 34.0582L74.9233 34.0576L74.8744 33.56ZM60.7144 6.14L60.7603 5.64212L60.2144 5.59172V6.14H60.7144ZM66.5944 7.64L66.3449 8.07335L66.3505 8.07647L66.5944 7.64ZM69.3544 10.82L68.8829 10.9864L68.8845 10.9909L69.3544 10.82ZM71.9344 30.68L71.5808 31.0336L71.5867 31.0393L71.9344 30.68ZM78.5344 32.48H79.0344V31.98H78.5344V32.48ZM78.5344 34.58L78.4935 35.0783L79.0344 35.1227V34.58H78.5344ZM74.8744 34.28L74.8304 34.7781L74.8335 34.7783L74.8744 34.28ZM68.6344 31.58L68.267 31.9191L68.267 31.9191L68.6344 31.58ZM66.3544 25.16L65.8545 25.1699L65.8546 25.1747L66.3544 25.16ZM66.1744 16.1H65.6743L65.6745 16.1099L66.1744 16.1ZM65.8744 12.38L65.3802 12.456L65.3819 12.4671L65.3841 12.4781L65.8744 12.38ZM64.4944 9.86L64.1723 10.2425L64.1723 10.2425L64.4944 9.86ZM60.7144 8.36H60.2144V8.76808L60.6142 8.84986L60.7144 8.36ZM78.0344 33.2V35.36H79.0344V33.2H78.0344ZM78.5344 34.86H77.3344V35.86H78.5344V34.86ZM77.3344 34.86C74.9666 34.86 73.0502 35.4848 71.6524 36.7952L72.3363 37.5248C73.4985 36.4352 75.1421 35.86 77.3344 35.86V34.86ZM71.6586 36.7895C70.2416 38.0737 69.5744 39.9695 69.5744 42.38H70.5744C70.5744 40.1505 71.1872 38.5663 72.3301 37.5305L71.6586 36.7895ZM69.5744 42.38V51.98H70.5744V42.38H69.5744ZM69.5744 51.98C69.5744 53.9444 69.3381 55.5418 68.8845 56.7891L69.8243 57.1309C70.3307 55.7382 70.5744 54.0156 70.5744 51.98H69.5744ZM68.8829 56.7936C68.4468 58.0293 67.6135 58.9977 66.3505 59.7035L66.8383 60.5765C68.2952 59.7623 69.302 58.6107 69.8259 57.1264L68.8829 56.7936ZM66.3449 59.7067C65.1103 60.4175 63.2279 60.9469 60.6533 61.2637L60.7755 62.2563C63.4009 61.9331 65.4385 61.3825 66.8439 60.5733L66.3449 59.7067ZM61.2144 61.76V59.48H60.2144V61.76H61.2144ZM60.8146 59.9699C62.6001 59.6046 63.9597 59.0839 64.8164 58.3625L64.1723 57.5975C63.509 58.1561 62.3487 58.6354 60.6142 58.9901L60.8146 59.9699ZM64.8042 58.3724C65.6725 57.687 66.1912 56.7492 66.3686 55.596L65.3802 55.444C65.2376 56.3708 64.8363 57.073 64.1846 57.5876L64.8042 58.3724ZM66.3647 55.6181C66.5734 54.5742 66.6744 53.2786 66.6744 51.74H65.6744C65.6744 53.2414 65.5753 54.4658 65.3841 55.4219L66.3647 55.6181ZM66.6743 51.7465L66.7943 42.5665L65.7944 42.5535L65.6744 51.7335L66.6743 51.7465ZM66.7939 42.5827C66.91 40.0273 67.642 38.0476 68.9465 36.594L68.2023 35.926C66.7068 37.5924 65.9187 39.8127 65.7949 42.5373L66.7939 42.5827ZM68.9418 36.5991C70.2742 35.1557 72.2429 34.2907 74.9177 34.0581L74.8311 33.0619C71.9858 33.3093 69.7546 34.2443 68.207 35.9209L68.9418 36.5991ZM74.9233 34.0576L78.5833 33.6976L78.4854 32.7024L74.8254 33.0624L74.9233 34.0576ZM60.6684 6.63788C63.2409 6.87534 65.1168 7.36622 66.3449 8.07331L66.8439 7.20669C65.432 6.39378 63.3879 5.88466 60.7603 5.64212L60.6684 6.63788ZM66.3505 8.07647C67.6135 8.78229 68.4468 9.75071 68.8829 10.9864L69.8259 10.6536C69.302 9.16928 68.2952 8.01771 66.8383 7.20353L66.3505 8.07647ZM68.8845 10.9909C69.3377 12.2373 69.5744 13.8543 69.5744 15.86H70.5744C70.5744 13.7857 70.331 12.0427 69.8243 10.6491L68.8845 10.9909ZM69.5744 15.86V25.46H70.5744V15.86H69.5744ZM69.5744 25.46C69.5744 27.794 70.2229 29.6756 71.5808 31.0336L72.2879 30.3264C71.1658 29.2044 70.5744 27.606 70.5744 25.46H69.5744ZM71.5867 31.0393C72.9498 32.3585 74.8932 32.98 77.3344 32.98V31.98C75.0555 31.98 73.3989 31.4015 72.2821 30.3207L71.5867 31.0393ZM77.3344 32.98H78.5344V31.98H77.3344V32.98ZM78.0344 32.48V34.58H79.0344V32.48H78.0344ZM78.5752 34.0817L74.9152 33.7817L74.8335 34.7783L78.4935 35.0783L78.5752 34.0817ZM74.9183 33.7819C72.2856 33.5496 70.3355 32.6857 69.0018 31.2409L68.267 31.9191C69.8132 33.5943 72.0231 34.5304 74.8304 34.7781L74.9183 33.7819ZM69.0018 31.2409C67.6645 29.7921 66.9316 27.7796 66.8542 25.1453L65.8546 25.1747C65.9371 27.9804 66.7242 30.2479 68.267 31.9191L69.0018 31.2409ZM66.8543 25.1501L66.6743 16.0901L65.6745 16.1099L65.8545 25.1699L66.8543 25.1501ZM66.6744 16.1C66.6744 14.6004 66.5733 13.3251 66.3647 12.2819L65.3841 12.4781C65.5755 13.4349 65.6744 14.6396 65.6744 16.1H66.6744ZM66.3686 12.304C66.1913 11.152 65.6748 10.2004 64.8164 9.47754L64.1723 10.2425C64.834 10.7996 65.2374 11.5279 65.3802 12.456L66.3686 12.304ZM64.8164 9.47754C63.9597 8.75609 62.6001 8.23536 60.8146 7.87014L60.6142 8.84986C62.3487 9.20464 63.509 9.6839 64.1723 10.2425L64.8164 9.47754ZM61.2144 8.36V6.14H60.2144V8.36H61.2144Z" fill="white"/>
<defs>
<linearGradient id="paint0_linear_11_695" x1="23.1364" y1="45" x2="50.7121" y2="45" gradientUnits="userSpaceOnUse">
<stop stop-color="#5C9DE9"/>
<stop offset="1" stop-color="#5A1665"/>
</linearGradient>
<linearGradient id="paint1_linear_11_695" x1="39.5" y1="0" x2="39.5" y2="41" gradientUnits="userSpaceOnUse">
<stop stop-color="#E95CA0"/>
<stop offset="1" stop-color="#9F3BAF"/>
</linearGradient>
<linearGradient id="paint2_linear_11_695" x1="35.1515" y1="20.5" x2="60" y2="20.5" gradientUnits="userSpaceOnUse">
<stop stop-color="#E95CA0"/>
<stop offset="1" stop-color="#9F3BAF"/>
</linearGradient>
<linearGradient id="paint3_linear_11_695" x1="124.861" y1="42.5168" x2="164.382" y2="65.0661" gradientUnits="userSpaceOnUse">
<stop stop-color="#363880"/>
<stop offset="1" stop-color="#811E91"/>
</linearGradient>
<linearGradient id="paint4_linear_11_695" x1="124.861" y1="42.5168" x2="164.382" y2="65.0661" gradientUnits="userSpaceOnUse">
<stop stop-color="#363880"/>
<stop offset="1" stop-color="#811E91"/>
</linearGradient>
<linearGradient id="paint5_linear_11_695" x1="124.861" y1="42.5168" x2="164.382" y2="65.0661" gradientUnits="userSpaceOnUse">
<stop stop-color="#363880"/>
<stop offset="1" stop-color="#811E91"/>
</linearGradient>
<linearGradient id="paint6_linear_11_695" x1="124.861" y1="42.5168" x2="164.382" y2="65.0661" gradientUnits="userSpaceOnUse">
<stop stop-color="#363880"/>
<stop offset="1" stop-color="#811E91"/>
</linearGradient>
<linearGradient id="paint7_linear_11_695" x1="124.861" y1="42.5168" x2="164.382" y2="65.0661" gradientUnits="userSpaceOnUse">
<stop stop-color="#363880"/>
<stop offset="1" stop-color="#811E91"/>
</linearGradient>
<linearGradient id="paint8_linear_11_695" x1="124.861" y1="42.5168" x2="164.382" y2="65.0661" gradientUnits="userSpaceOnUse">
<stop stop-color="#363880"/>
<stop offset="1" stop-color="#811E91"/>
</linearGradient>
<linearGradient id="paint9_linear_11_695" x1="42" y1="6" x2="42" y2="45" gradientUnits="userSpaceOnUse">
<stop stop-color="#88346E"/>
<stop offset="1" stop-color="#5B3C8A"/>
</linearGradient>
</defs>
</svg>
